<?xml version="1.0" encoding="UTF-8" standalone="no"?>
<!DOCTYPE svg PUBLIC "-//W3C//DTD SVG 1.1//EN"
 "http://www.w3.org/Graphics/SVG/1.1/DTD/svg11.dtd">
<!-- Generated by graphviz version 2.38.0 (20140413.2041)
 -->
<!-- Title: imported_1577130008.4852815 Pages: 1 -->
<svg width="602pt" height="374pt"
 viewBox="0.00 0.00 602.00 374.00" xmlns="http://www.w3.org/2000/svg" xmlns:xlink="http://www.w3.org/1999/xlink">
<g id="graph0" class="graph" transform="scale(1 1) rotate(0) translate(4 370)">
<title>imported_1577130008.4852815</title>
<!-- &#45;877614639634535215 -->
<g id="node1" class="node"><title>&#45;877614639634535215</title>
<polygon fill="none" stroke="black" points="504,-231 450,-231 450,-195 504,-195 504,-231"/>
<text text-anchor="middle" x="477" y="-209.3" font-family="Times New Roman,serif" font-size="14.00">h</text>
</g>
<!-- 1052054542663231953 -->
<g id="node21" class="node"><title>1052054542663231953</title>
<ellipse fill="orange" stroke="black" cx="567" cy="-240" rx="27" ry="27"/>
</g>
<!-- &#45;877614639634535215&#45;&gt;1052054542663231953 -->
<g id="edge24" class="edge"><title>&#45;877614639634535215&#45;&gt;1052054542663231953</title>
<path fill="none" stroke="black" d="M504.403,-221.101C512.79,-223.674 522.197,-226.561 531.088,-229.288"/>
<polygon fill="black" stroke="black" points="530.236,-232.688 540.823,-232.275 532.29,-225.996 530.236,-232.688"/>
</g>
<!-- &#45;759928514005850334 -->
<g id="node2" class="node"><title>&#45;759928514005850334</title>
<polygon fill="none" stroke="black" points="144,-124 90,-124 90,-88 144,-88 144,-124"/>
<text text-anchor="middle" x="117" y="-102.3" font-family="Times New Roman,serif" font-size="14.00">e</text>
</g>
<!-- 1539189403729580904 -->
<g id="node15" class="node"><title>1539189403729580904</title>
<ellipse fill="none" stroke="black" cx="207" cy="-106" rx="27" ry="27"/>
</g>
<!-- &#45;759928514005850334&#45;&gt;1539189403729580904 -->
<g id="edge15" class="edge"><title>&#45;759928514005850334&#45;&gt;1539189403729580904</title>
<path fill="none" stroke="black" d="M144.403,-106C152.393,-106 161.311,-106 169.824,-106"/>
<polygon fill="black" stroke="black" points="169.919,-109.5 179.919,-106 169.919,-102.5 169.919,-109.5"/>
</g>
<!-- &#45;905889862422357601 -->
<g id="node18" class="node"><title>&#45;905889862422357601</title>
<ellipse fill="none" stroke="black" cx="207" cy="-34" rx="27" ry="27"/>
</g>
<!-- &#45;759928514005850334&#45;&gt;&#45;905889862422357601 -->
<g id="edge5" class="edge"><title>&#45;759928514005850334&#45;&gt;&#45;905889862422357601</title>
<path fill="none" stroke="black" d="M140.206,-87.8314C151.541,-78.557 165.458,-67.1704 177.569,-57.2618"/>
<polygon fill="black" stroke="black" points="180.087,-59.7235 185.611,-50.6822 175.655,-54.3058 180.087,-59.7235"/>
</g>
<!-- &#45;4353070210892642330 -->
<g id="node3" class="node"><title>&#45;4353070210892642330</title>
<polygon fill="none" stroke="black" points="324,-285 270,-285 270,-249 324,-249 324,-285"/>
<text text-anchor="middle" x="297" y="-263.3" font-family="Times New Roman,serif" font-size="14.00">f</text>
</g>
<!-- 4612428137786207584 -->
<g id="node16" class="node"><title>4612428137786207584</title>
<ellipse fill="none" stroke="black" cx="387" cy="-267" rx="27" ry="27"/>
</g>
<!-- &#45;4353070210892642330&#45;&gt;4612428137786207584 -->
<g id="edge19" class="edge"><title>&#45;4353070210892642330&#45;&gt;4612428137786207584</title>
<path fill="none" stroke="black" d="M324.403,-267C332.393,-267 341.311,-267 349.824,-267"/>
<polygon fill="black" stroke="black" points="349.919,-270.5 359.919,-267 349.919,-263.5 349.919,-270.5"/>
</g>
<!-- 5994172857383386870 -->
<g id="node4" class="node"><title>5994172857383386870</title>
<polygon fill="none" stroke="black" points="144,-61 90,-61 90,-25 144,-25 144,-61"/>
<text text-anchor="middle" x="117" y="-39.3" font-family="Times New Roman,serif" font-size="14.00">a</text>
</g>
<!-- 5994172857383386870&#45;&gt;1539189403729580904 -->
<g id="edge27" class="edge"><title>5994172857383386870&#45;&gt;1539189403729580904</title>
<path fill="none" stroke="black" d="M143.453,-61.2222C153.707,-68.563 165.606,-77.0813 176.255,-84.7054"/>
<polygon fill="black" stroke="black" points="174.304,-87.6132 184.473,-90.5885 178.379,-81.9214 174.304,-87.6132"/>
</g>
<!-- 5994172857383386870&#45;&gt;&#45;905889862422357601 -->
<g id="edge9" class="edge"><title>5994172857383386870&#45;&gt;&#45;905889862422357601</title>
<path fill="none" stroke="black" d="M144.403,-40.2997C152.393,-39.4825 161.311,-38.5705 169.824,-37.6998"/>
<polygon fill="black" stroke="black" points="170.327,-41.1667 179.919,-36.6674 169.615,-34.203 170.327,-41.1667"/>
</g>
<!-- &#45;1755413578382065998 -->
<g id="node5" class="node"><title>&#45;1755413578382065998</title>
<polygon fill="none" stroke="black" points="324,-38 270,-38 270,-2 324,-2 324,-38"/>
<text text-anchor="middle" x="297" y="-16.3" font-family="Times New Roman,serif" font-size="14.00">c</text>
</g>
<!-- 3199565089938280139 -->
<g id="node12" class="node"><title>3199565089938280139</title>
<ellipse fill="none" stroke="black" cx="387" cy="-27" rx="27" ry="27"/>
</g>
<!-- &#45;1755413578382065998&#45;&gt;3199565089938280139 -->
<g id="edge8" class="edge"><title>&#45;1755413578382065998&#45;&gt;3199565089938280139</title>
<path fill="none" stroke="black" d="M324.403,-22.1002C332.393,-22.7358 341.311,-23.4452 349.824,-24.1224"/>
<polygon fill="black" stroke="black" points="349.673,-27.6213 359.919,-24.9254 350.228,-20.6434 349.673,-27.6213"/>
</g>
<!-- 5016139670736129618 -->
<g id="node6" class="node"><title>5016139670736129618</title>
<polygon fill="none" stroke="black" points="324,-146 270,-146 270,-110 324,-110 324,-146"/>
<text text-anchor="middle" x="297" y="-124.3" font-family="Times New Roman,serif" font-size="14.00">b</text>
</g>
<!-- &#45;5153684450691277699 -->
<g id="node20" class="node"><title>&#45;5153684450691277699</title>
<ellipse fill="none" stroke="black" cx="387" cy="-112" rx="27" ry="27"/>
</g>
<!-- 5016139670736129618&#45;&gt;&#45;5153684450691277699 -->
<g id="edge23" class="edge"><title>5016139670736129618&#45;&gt;&#45;5153684450691277699</title>
<path fill="none" stroke="black" d="M324.403,-123.199C332.554,-121.717 341.669,-120.06 350.337,-118.484"/>
<polygon fill="black" stroke="black" points="351.009,-121.92 360.221,-116.687 349.757,-115.032 351.009,-121.92"/>
</g>
<!-- &#45;2985118760847666230 -->
<g id="node7" class="node"><title>&#45;2985118760847666230</title>
<polygon fill="black" stroke="black" points="144,-285 90,-285 90,-249 144,-249 144,-285"/>
</g>
<!-- &#45;4787359909285478749 -->
<g id="node13" class="node"><title>&#45;4787359909285478749</title>
<ellipse fill="none" stroke="black" cx="207" cy="-339" rx="27" ry="27"/>
</g>
<!-- &#45;2985118760847666230&#45;&gt;&#45;4787359909285478749 -->
<g id="edge22" class="edge"><title>&#45;2985118760847666230&#45;&gt;&#45;4787359909285478749</title>
<path fill="none" stroke="black" d="M140.206,-285.169C151.541,-294.443 165.458,-305.83 177.569,-315.738"/>
<polygon fill="black" stroke="black" points="175.655,-318.694 185.611,-322.318 180.087,-313.277 175.655,-318.694"/>
</g>
<!-- &#45;7025497399030622183 -->
<g id="node17" class="node"><title>&#45;7025497399030622183</title>
<ellipse fill="none" stroke="black" cx="207" cy="-267" rx="27" ry="27"/>
</g>
<!-- &#45;2985118760847666230&#45;&gt;&#45;7025497399030622183 -->
<g id="edge21" class="edge"><title>&#45;2985118760847666230&#45;&gt;&#45;7025497399030622183</title>
<path fill="none" stroke="black" d="M144.403,-267C152.393,-267 161.311,-267 169.824,-267"/>
<polygon fill="black" stroke="black" points="169.919,-270.5 179.919,-267 169.919,-263.5 169.919,-270.5"/>
</g>
<!-- &#45;58580350313499950 -->
<g id="node8" class="node"><title>&#45;58580350313499950</title>
<polygon fill="none" stroke="black" points="324,-357 270,-357 270,-321 324,-321 324,-357"/>
<text text-anchor="middle" x="297" y="-335.3" font-family="Times New Roman,serif" font-size="14.00">g</text>
</g>
<!-- &#45;500931208088344513 -->
<g id="node22" class="node"><title>&#45;500931208088344513</title>
<ellipse fill="none" stroke="black" cx="387" cy="-339" rx="27" ry="27"/>
</g>
<!-- &#45;58580350313499950&#45;&gt;&#45;500931208088344513 -->
<g id="edge4" class="edge"><title>&#45;58580350313499950&#45;&gt;&#45;500931208088344513</title>
<path fill="none" stroke="black" d="M324.403,-339C332.393,-339 341.311,-339 349.824,-339"/>
<polygon fill="black" stroke="black" points="349.919,-342.5 359.919,-339 349.919,-335.5 349.919,-342.5"/>
</g>
<!-- &#45;7084027588862063312 -->
<g id="node9" class="node"><title>&#45;7084027588862063312</title>
<polygon fill="black" stroke="black" points="324,-92 270,-92 270,-56 324,-56 324,-92"/>
</g>
<!-- &#45;7084027588862063312&#45;&gt;&#45;5153684450691277699 -->
<g id="edge6" class="edge"><title>&#45;7084027588862063312&#45;&gt;&#45;5153684450691277699</title>
<path fill="none" stroke="black" d="M324.403,-85.4013C333.271,-89.2304 343.28,-93.5526 352.612,-97.5824"/>
<polygon fill="black" stroke="black" points="351.447,-100.892 362.015,-101.643 354.222,-94.4654 351.447,-100.892"/>
</g>
<!-- 9210687334749703547 -->
<g id="node10" class="node"><title>9210687334749703547</title>
<polygon fill="none" stroke="black" points="504,-130 450,-130 450,-94 504,-94 504,-130"/>
<text text-anchor="middle" x="477" y="-108.3" font-family="Times New Roman,serif" font-size="14.00">d</text>
</g>
<!-- &#45;7909627992351525139 -->
<g id="node14" class="node"><title>&#45;7909627992351525139</title>
<ellipse fill="none" stroke="black" cx="27" cy="-193" rx="27" ry="27"/>
</g>
<!-- 9210687334749703547&#45;&gt;&#45;7909627992351525139 -->
<g id="edge10" class="edge"><title>9210687334749703547&#45;&gt;&#45;7909627992351525139</title>
<path fill="none" stroke="black" d="M449.74,-129.639C439.026,-136.19 426.285,-143.189 414,-148 364.804,-167.267 350.835,-174 298,-174 206,-174 206,-174 206,-174 156.499,-174 99.6904,-181.355 63.8293,-186.913"/>
<polygon fill="black" stroke="black" points="63.1764,-183.472 53.849,-188.497 64.2741,-190.386 63.1764,-183.472"/>
</g>
<!-- &#45;8715693442827360163 -->
<g id="node11" class="node"><title>&#45;8715693442827360163</title>
<polygon fill="black" stroke="black" points="504,-285 450,-285 450,-249 504,-249 504,-285"/>
</g>
<!-- &#45;8715693442827360163&#45;&gt;1052054542663231953 -->
<g id="edge17" class="edge"><title>&#45;8715693442827360163&#45;&gt;1052054542663231953</title>
<path fill="none" stroke="black" d="M504.403,-258.899C512.79,-256.326 522.197,-253.439 531.088,-250.712"/>
<polygon fill="black" stroke="black" points="532.29,-254.004 540.823,-247.725 530.236,-247.312 532.29,-254.004"/>
</g>
<!-- 3199565089938280139&#45;&gt;9210687334749703547 -->
<g id="edge1" class="edge"><title>3199565089938280139&#45;&gt;9210687334749703547</title>
<path fill="none" stroke="black" d="M407.095,-45.4437C419.634,-57.5558 436.198,-73.5546 449.942,-86.8307"/>
<polygon fill="black" stroke="black" points="447.621,-89.4543 457.245,-93.8843 452.484,-84.4194 447.621,-89.4543"/>
</g>
<!-- &#45;4787359909285478749&#45;&gt;&#45;58580350313499950 -->
<g id="edge20" class="edge"><title>&#45;4787359909285478749&#45;&gt;&#45;58580350313499950</title>
<path fill="none" stroke="black" d="M234.403,-339C242.393,-339 251.311,-339 259.824,-339"/>
<polygon fill="black" stroke="black" points="259.919,-342.5 269.919,-339 259.919,-335.5 259.919,-342.5"/>
</g>
<!-- &#45;7909627992351525139&#45;&gt;&#45;877614639634535215 -->
<g id="edge26" class="edge"><title>&#45;7909627992351525139&#45;&gt;&#45;877614639634535215</title>
<path fill="none" stroke="black" d="M53.849,-197.503C88.4037,-203.121 151.613,-212 206,-212 206,-212 206,-212 298,-212 347.081,-212 403.774,-212.385 439.743,-212.677"/>
<polygon fill="black" stroke="black" points="439.732,-216.177 449.761,-212.76 439.791,-209.177 439.732,-216.177"/>
</g>
<!-- &#45;7909627992351525139&#45;&gt;&#45;759928514005850334 -->
<g id="edge16" class="edge"><title>&#45;7909627992351525139&#45;&gt;&#45;759928514005850334</title>
<path fill="none" stroke="black" d="M47.0947,-174.122C59.7195,-161.641 76.4232,-145.127 90.2225,-131.485"/>
<polygon fill="black" stroke="black" points="92.8949,-133.764 97.5456,-124.245 87.9735,-128.786 92.8949,-133.764"/>
</g>
<!-- &#45;7909627992351525139&#45;&gt;&#45;2985118760847666230 -->
<g id="edge3" class="edge"><title>&#45;7909627992351525139&#45;&gt;&#45;2985118760847666230</title>
<path fill="none" stroke="black" d="M48.4102,-210.163C59.739,-219.69 74.0301,-231.707 86.5501,-242.235"/>
<polygon fill="black" stroke="black" points="84.5665,-245.14 94.4728,-248.898 89.0717,-239.783 84.5665,-245.14"/>
</g>
<!-- 1539189403729580904&#45;&gt;5016139670736129618 -->
<g id="edge25" class="edge"><title>1539189403729580904&#45;&gt;5016139670736129618</title>
<path fill="none" stroke="black" d="M233.453,-112.363C241.788,-114.447 251.21,-116.803 260.165,-119.041"/>
<polygon fill="black" stroke="black" points="259.443,-122.468 269.993,-121.498 261.141,-115.677 259.443,-122.468"/>
</g>
<!-- 1539189403729580904&#45;&gt;&#45;7084027588862063312 -->
<g id="edge7" class="edge"><title>1539189403729580904&#45;&gt;&#45;7084027588862063312</title>
<path fill="none" stroke="black" d="M232.513,-97.0862C241.119,-93.9568 250.971,-90.3742 260.306,-86.9798"/>
<polygon fill="black" stroke="black" points="261.57,-90.2442 269.772,-83.5374 259.178,-83.6656 261.57,-90.2442"/>
</g>
<!-- 4612428137786207584&#45;&gt;&#45;8715693442827360163 -->
<g id="edge2" class="edge"><title>4612428137786207584&#45;&gt;&#45;8715693442827360163</title>
<path fill="none" stroke="black" d="M414.403,-267C422.393,-267 431.311,-267 439.824,-267"/>
<polygon fill="black" stroke="black" points="439.919,-270.5 449.919,-267 439.919,-263.5 439.919,-270.5"/>
</g>
<!-- &#45;7025497399030622183&#45;&gt;&#45;4353070210892642330 -->
<g id="edge13" class="edge"><title>&#45;7025497399030622183&#45;&gt;&#45;4353070210892642330</title>
<path fill="none" stroke="black" d="M234.403,-267C242.393,-267 251.311,-267 259.824,-267"/>
<polygon fill="black" stroke="black" points="259.919,-270.5 269.919,-267 259.919,-263.5 259.919,-270.5"/>
</g>
<!-- &#45;905889862422357601&#45;&gt;&#45;1755413578382065998 -->
<g id="edge12" class="edge"><title>&#45;905889862422357601&#45;&gt;&#45;1755413578382065998</title>
<path fill="none" stroke="black" d="M233.927,-29.8753C242.089,-28.5767 251.256,-27.1183 259.989,-25.729"/>
<polygon fill="black" stroke="black" points="260.628,-29.1714 269.954,-24.1436 259.529,-22.2583 260.628,-29.1714"/>
</g>
<!-- &#45;7953371012746489375 -->
<g id="node19" class="node"><title>&#45;7953371012746489375</title>
<ellipse fill="green" stroke="black" cx="27" cy="-43" rx="27" ry="27"/>
<text text-anchor="middle" x="27" y="-39.3" font-family="Times New Roman,serif" font-size="14.00">1</text>
</g>
<!-- &#45;7953371012746489375&#45;&gt;5994172857383386870 -->
<g id="edge14" class="edge"><title>&#45;7953371012746489375&#45;&gt;5994172857383386870</title>
<path fill="none" stroke="black" d="M54.4029,-43C62.3932,-43 71.3106,-43 79.8241,-43"/>
<polygon fill="black" stroke="black" points="79.919,-46.5001 89.919,-43 79.919,-39.5001 79.919,-46.5001"/>
</g>
<!-- &#45;5153684450691277699&#45;&gt;9210687334749703547 -->
<g id="edge18" class="edge"><title>&#45;5153684450691277699&#45;&gt;9210687334749703547</title>
<path fill="none" stroke="black" d="M414.403,-112C422.393,-112 431.311,-112 439.824,-112"/>
<polygon fill="black" stroke="black" points="439.919,-115.5 449.919,-112 439.919,-108.5 439.919,-115.5"/>
</g>
<!-- &#45;500931208088344513&#45;&gt;&#45;8715693442827360163 -->
<g id="edge11" class="edge"><title>&#45;500931208088344513&#45;&gt;&#45;8715693442827360163</title>
<path fill="none" stroke="black" d="M408.41,-322.301C419.572,-313.168 433.61,-301.682 445.997,-291.548"/>
<polygon fill="black" stroke="black" points="448.327,-294.163 453.851,-285.122 443.895,-288.746 448.327,-294.163"/>
</g>
</g>
</svg>
