<?xml version="1.0" encoding="UTF-8" standalone="no"?>
<!DOCTYPE svg PUBLIC "-//W3C//DTD SVG 1.1//EN"
 "http://www.w3.org/Graphics/SVG/1.1/DTD/svg11.dtd">
<!-- Generated by graphviz version 2.38.0 (20140413.2041)
 -->
<!-- Title: subnet_1 Pages: 1 -->
<svg width="242pt" height="62pt"
 viewBox="0.00 0.00 242.00 62.00" xmlns="http://www.w3.org/2000/svg" xmlns:xlink="http://www.w3.org/1999/xlink">
<g id="graph0" class="graph" transform="scale(1 1) rotate(0) translate(4 58)">
<title>subnet_1</title>
<!-- &#45;1755413578382065998 -->
<g id="node1" class="node"><title>&#45;1755413578382065998</title>
<polygon fill="none" stroke="black" points="54,-45 0,-45 0,-9 54,-9 54,-45"/>
<text text-anchor="middle" x="27" y="-23.3" font-family="Times New Roman,serif" font-size="14.00">c</text>
</g>
<!-- 3199565089938280139 -->
<g id="node3" class="node"><title>3199565089938280139</title>
<ellipse fill="none" stroke="black" cx="117" cy="-27" rx="27" ry="27"/>
</g>
<!-- &#45;1755413578382065998&#45;&gt;3199565089938280139 -->
<g id="edge1" class="edge"><title>&#45;1755413578382065998&#45;&gt;3199565089938280139</title>
<path fill="none" stroke="black" d="M54.4029,-27C62.3932,-27 71.3106,-27 79.8241,-27"/>
<polygon fill="black" stroke="black" points="79.919,-30.5001 89.919,-27 79.919,-23.5001 79.919,-30.5001"/>
</g>
<!-- 9210687334749703547 -->
<g id="node2" class="node"><title>9210687334749703547</title>
<polygon fill="none" stroke="black" points="234,-45 180,-45 180,-9 234,-9 234,-45"/>
<text text-anchor="middle" x="207" y="-23.3" font-family="Times New Roman,serif" font-size="14.00">d</text>
</g>
<!-- 3199565089938280139&#45;&gt;9210687334749703547 -->
<g id="edge2" class="edge"><title>3199565089938280139&#45;&gt;9210687334749703547</title>
<path fill="none" stroke="black" d="M144.403,-27C152.393,-27 161.311,-27 169.824,-27"/>
<polygon fill="black" stroke="black" points="169.919,-30.5001 179.919,-27 169.919,-23.5001 169.919,-30.5001"/>
</g>
</g>
</svg>
