<?xml version="1.0" encoding="UTF-8" standalone="no"?>
<!DOCTYPE svg PUBLIC "-//W3C//DTD SVG 1.1//EN"
 "http://www.w3.org/Graphics/SVG/1.1/DTD/svg11.dtd">
<!-- Generated by graphviz version 2.38.0 (20140413.2041)
 -->
<!-- Title: subnet_5 Pages: 1 -->
<svg width="242pt" height="98pt"
 viewBox="0.00 0.00 242.00 98.00" xmlns="http://www.w3.org/2000/svg" xmlns:xlink="http://www.w3.org/1999/xlink">
<g id="graph0" class="graph" transform="scale(1 1) rotate(0) translate(4 94)">
<title>subnet_5</title>
<!-- &#45;759928514005850334 -->
<g id="node1" class="node"><title>&#45;759928514005850334</title>
<polygon fill="none" stroke="black" points="54,-90 0,-90 0,-54 54,-54 54,-90"/>
<text text-anchor="middle" x="27" y="-68.3" font-family="Times New Roman,serif" font-size="14.00">e</text>
</g>
<!-- &#45;905889862422357601 -->
<g id="node4" class="node"><title>&#45;905889862422357601</title>
<ellipse fill="none" stroke="black" cx="117" cy="-45" rx="27" ry="27"/>
</g>
<!-- &#45;759928514005850334&#45;&gt;&#45;905889862422357601 -->
<g id="edge2" class="edge"><title>&#45;759928514005850334&#45;&gt;&#45;905889862422357601</title>
<path fill="none" stroke="black" d="M54.4029,-63.8991C62.7896,-61.3259 72.1974,-58.4394 81.0877,-55.7117"/>
<polygon fill="black" stroke="black" points="82.2897,-59.004 90.8232,-52.7247 80.2364,-52.3119 82.2897,-59.004"/>
</g>
<!-- 5994172857383386870 -->
<g id="node2" class="node"><title>5994172857383386870</title>
<polygon fill="none" stroke="black" points="54,-36 0,-36 0,-0 54,-0 54,-36"/>
<text text-anchor="middle" x="27" y="-14.3" font-family="Times New Roman,serif" font-size="14.00">a</text>
</g>
<!-- 5994172857383386870&#45;&gt;&#45;905889862422357601 -->
<g id="edge3" class="edge"><title>5994172857383386870&#45;&gt;&#45;905889862422357601</title>
<path fill="none" stroke="black" d="M54.4029,-26.1009C62.7896,-28.6741 72.1974,-31.5606 81.0877,-34.2883"/>
<polygon fill="black" stroke="black" points="80.2364,-37.6881 90.8232,-37.2753 82.2897,-30.996 80.2364,-37.6881"/>
</g>
<!-- &#45;1755413578382065998 -->
<g id="node3" class="node"><title>&#45;1755413578382065998</title>
<polygon fill="none" stroke="black" points="234,-63 180,-63 180,-27 234,-27 234,-63"/>
<text text-anchor="middle" x="207" y="-41.3" font-family="Times New Roman,serif" font-size="14.00">c</text>
</g>
<!-- &#45;905889862422357601&#45;&gt;&#45;1755413578382065998 -->
<g id="edge1" class="edge"><title>&#45;905889862422357601&#45;&gt;&#45;1755413578382065998</title>
<path fill="none" stroke="black" d="M144.403,-45C152.393,-45 161.311,-45 169.824,-45"/>
<polygon fill="black" stroke="black" points="169.919,-48.5001 179.919,-45 169.919,-41.5001 169.919,-48.5001"/>
</g>
</g>
</svg>
