<?xml version="1.0" encoding="UTF-8" standalone="no"?>
<!DOCTYPE svg PUBLIC "-//W3C//DTD SVG 1.1//EN"
 "http://www.w3.org/Graphics/SVG/1.1/DTD/svg11.dtd">
<!-- Generated by graphviz version 2.38.0 (20140413.2041)
 -->
<!-- Title: subnet_4 Pages: 1 -->
<svg width="332pt" height="143pt"
 viewBox="0.00 0.00 332.00 143.00" xmlns="http://www.w3.org/2000/svg" xmlns:xlink="http://www.w3.org/1999/xlink">
<g id="graph0" class="graph" transform="scale(1 1) rotate(0) translate(4 139)">
<title>subnet_4</title>
<!-- &#45;58580350313499950 -->
<g id="node1" class="node"><title>&#45;58580350313499950</title>
<polygon fill="none" stroke="black" points="54,-126 0,-126 0,-90 54,-90 54,-126"/>
<text text-anchor="middle" x="27" y="-104.3" font-family="Times New Roman,serif" font-size="14.00">g</text>
</g>
<!-- &#45;500931208088344513 -->
<g id="node6" class="node"><title>&#45;500931208088344513</title>
<ellipse fill="none" stroke="black" cx="117" cy="-108" rx="27" ry="27"/>
</g>
<!-- &#45;58580350313499950&#45;&gt;&#45;500931208088344513 -->
<g id="edge4" class="edge"><title>&#45;58580350313499950&#45;&gt;&#45;500931208088344513</title>
<path fill="none" stroke="black" d="M54.4029,-108C62.3932,-108 71.3106,-108 79.8241,-108"/>
<polygon fill="black" stroke="black" points="79.919,-111.5 89.919,-108 79.919,-104.5 79.919,-111.5"/>
</g>
<!-- &#45;877614639634535215 -->
<g id="node2" class="node"><title>&#45;877614639634535215</title>
<polygon fill="none" stroke="black" points="234,-36 180,-36 180,-0 234,-0 234,-36"/>
<text text-anchor="middle" x="207" y="-14.3" font-family="Times New Roman,serif" font-size="14.00">h</text>
</g>
<!-- 1052054542663231953 -->
<g id="node5" class="node"><title>1052054542663231953</title>
<ellipse fill="orange" stroke="black" cx="297" cy="-45" rx="27" ry="27"/>
</g>
<!-- &#45;877614639634535215&#45;&gt;1052054542663231953 -->
<g id="edge1" class="edge"><title>&#45;877614639634535215&#45;&gt;1052054542663231953</title>
<path fill="none" stroke="black" d="M234.403,-26.1009C242.79,-28.6741 252.197,-31.5606 261.088,-34.2883"/>
<polygon fill="black" stroke="black" points="260.236,-37.6881 270.823,-37.2753 262.29,-30.996 260.236,-37.6881"/>
</g>
<!-- &#45;8715693442827360163 -->
<g id="node3" class="node"><title>&#45;8715693442827360163</title>
<polygon fill="black" stroke="black" points="234,-90 180,-90 180,-54 234,-54 234,-90"/>
</g>
<!-- &#45;8715693442827360163&#45;&gt;1052054542663231953 -->
<g id="edge5" class="edge"><title>&#45;8715693442827360163&#45;&gt;1052054542663231953</title>
<path fill="none" stroke="black" d="M234.403,-63.8991C242.79,-61.3259 252.197,-58.4394 261.088,-55.7117"/>
<polygon fill="black" stroke="black" points="262.29,-59.004 270.823,-52.7247 260.236,-52.3119 262.29,-59.004"/>
</g>
<!-- &#45;4353070210892642330 -->
<g id="node4" class="node"><title>&#45;4353070210892642330</title>
<polygon fill="none" stroke="black" points="54,-54 0,-54 0,-18 54,-18 54,-54"/>
<text text-anchor="middle" x="27" y="-32.3" font-family="Times New Roman,serif" font-size="14.00">f</text>
</g>
<!-- 4612428137786207584 -->
<g id="node7" class="node"><title>4612428137786207584</title>
<ellipse fill="none" stroke="black" cx="117" cy="-36" rx="27" ry="27"/>
</g>
<!-- &#45;4353070210892642330&#45;&gt;4612428137786207584 -->
<g id="edge2" class="edge"><title>&#45;4353070210892642330&#45;&gt;4612428137786207584</title>
<path fill="none" stroke="black" d="M54.4029,-36C62.3932,-36 71.3106,-36 79.8241,-36"/>
<polygon fill="black" stroke="black" points="79.919,-39.5001 89.919,-36 79.919,-32.5001 79.919,-39.5001"/>
</g>
<!-- &#45;500931208088344513&#45;&gt;&#45;8715693442827360163 -->
<g id="edge6" class="edge"><title>&#45;500931208088344513&#45;&gt;&#45;8715693442827360163</title>
<path fill="none" stroke="black" d="M142.513,-97.972C151.119,-94.4514 160.971,-90.421 170.306,-86.6022"/>
<polygon fill="black" stroke="black" points="171.842,-89.7554 179.772,-82.7296 169.191,-83.2766 171.842,-89.7554"/>
</g>
<!-- 4612428137786207584&#45;&gt;&#45;8715693442827360163 -->
<g id="edge3" class="edge"><title>4612428137786207584&#45;&gt;&#45;8715693442827360163</title>
<path fill="none" stroke="black" d="M142.513,-46.028C151.119,-49.5486 160.971,-53.579 170.306,-57.3978"/>
<polygon fill="black" stroke="black" points="169.191,-60.7234 179.772,-61.2704 171.842,-54.2446 169.191,-60.7234"/>
</g>
</g>
</svg>
