<?xml version="1.0" encoding="UTF-8" standalone="no"?>
<!DOCTYPE svg PUBLIC "-//W3C//DTD SVG 1.1//EN"
 "http://www.w3.org/Graphics/SVG/1.1/DTD/svg11.dtd">
<!-- Generated by graphviz version 2.38.0 (20140413.2041)
 -->
<!-- Title: subnet_3 Pages: 1 -->
<svg width="422pt" height="98pt"
 viewBox="0.00 0.00 422.00 98.00" xmlns="http://www.w3.org/2000/svg" xmlns:xlink="http://www.w3.org/1999/xlink">
<g id="graph0" class="graph" transform="scale(1 1) rotate(0) translate(4 94)">
<title>subnet_3</title>
<!-- 9210687334749703547 -->
<g id="node1" class="node"><title>9210687334749703547</title>
<polygon fill="none" stroke="black" points="414,-63 360,-63 360,-27 414,-27 414,-63"/>
<text text-anchor="middle" x="387" y="-41.3" font-family="Times New Roman,serif" font-size="14.00">d</text>
</g>
<!-- &#45;759928514005850334 -->
<g id="node2" class="node"><title>&#45;759928514005850334</title>
<polygon fill="none" stroke="black" points="54,-90 0,-90 0,-54 54,-54 54,-90"/>
<text text-anchor="middle" x="27" y="-68.3" font-family="Times New Roman,serif" font-size="14.00">e</text>
</g>
<!-- 1539189403729580904 -->
<g id="node6" class="node"><title>1539189403729580904</title>
<ellipse fill="none" stroke="black" cx="117" cy="-45" rx="27" ry="27"/>
</g>
<!-- &#45;759928514005850334&#45;&gt;1539189403729580904 -->
<g id="edge5" class="edge"><title>&#45;759928514005850334&#45;&gt;1539189403729580904</title>
<path fill="none" stroke="black" d="M54.4029,-63.8991C62.7896,-61.3259 72.1974,-58.4394 81.0877,-55.7117"/>
<polygon fill="black" stroke="black" points="82.2897,-59.004 90.8232,-52.7247 80.2364,-52.3119 82.2897,-59.004"/>
</g>
<!-- 5994172857383386870 -->
<g id="node3" class="node"><title>5994172857383386870</title>
<polygon fill="none" stroke="black" points="54,-36 0,-36 0,-0 54,-0 54,-36"/>
<text text-anchor="middle" x="27" y="-14.3" font-family="Times New Roman,serif" font-size="14.00">a</text>
</g>
<!-- 5994172857383386870&#45;&gt;1539189403729580904 -->
<g id="edge1" class="edge"><title>5994172857383386870&#45;&gt;1539189403729580904</title>
<path fill="none" stroke="black" d="M54.4029,-26.1009C62.7896,-28.6741 72.1974,-31.5606 81.0877,-34.2883"/>
<polygon fill="black" stroke="black" points="80.2364,-37.6881 90.8232,-37.2753 82.2897,-30.996 80.2364,-37.6881"/>
</g>
<!-- 5016139670736129618 -->
<g id="node4" class="node"><title>5016139670736129618</title>
<polygon fill="none" stroke="black" points="234,-90 180,-90 180,-54 234,-54 234,-90"/>
<text text-anchor="middle" x="207" y="-68.3" font-family="Times New Roman,serif" font-size="14.00">b</text>
</g>
<!-- &#45;5153684450691277699 -->
<g id="node7" class="node"><title>&#45;5153684450691277699</title>
<ellipse fill="none" stroke="black" cx="297" cy="-45" rx="27" ry="27"/>
</g>
<!-- 5016139670736129618&#45;&gt;&#45;5153684450691277699 -->
<g id="edge3" class="edge"><title>5016139670736129618&#45;&gt;&#45;5153684450691277699</title>
<path fill="none" stroke="black" d="M234.403,-63.8991C242.79,-61.3259 252.197,-58.4394 261.088,-55.7117"/>
<polygon fill="black" stroke="black" points="262.29,-59.004 270.823,-52.7247 260.236,-52.3119 262.29,-59.004"/>
</g>
<!-- &#45;7084027588862063312 -->
<g id="node5" class="node"><title>&#45;7084027588862063312</title>
<polygon fill="black" stroke="black" points="234,-36 180,-36 180,-0 234,-0 234,-36"/>
</g>
<!-- &#45;7084027588862063312&#45;&gt;&#45;5153684450691277699 -->
<g id="edge4" class="edge"><title>&#45;7084027588862063312&#45;&gt;&#45;5153684450691277699</title>
<path fill="none" stroke="black" d="M234.403,-26.1009C242.79,-28.6741 252.197,-31.5606 261.088,-34.2883"/>
<polygon fill="black" stroke="black" points="260.236,-37.6881 270.823,-37.2753 262.29,-30.996 260.236,-37.6881"/>
</g>
<!-- 1539189403729580904&#45;&gt;5016139670736129618 -->
<g id="edge2" class="edge"><title>1539189403729580904&#45;&gt;5016139670736129618</title>
<path fill="none" stroke="black" d="M142.982,-52.6649C151.415,-55.2524 161.003,-58.1941 170.111,-60.9885"/>
<polygon fill="black" stroke="black" points="169.141,-64.3519 179.727,-63.9391 171.194,-57.6598 169.141,-64.3519"/>
</g>
<!-- 1539189403729580904&#45;&gt;&#45;7084027588862063312 -->
<g id="edge7" class="edge"><title>1539189403729580904&#45;&gt;&#45;7084027588862063312</title>
<path fill="none" stroke="black" d="M142.982,-37.3351C151.415,-34.7476 161.003,-31.8059 170.111,-29.0115"/>
<polygon fill="black" stroke="black" points="171.194,-32.3402 179.727,-26.0609 169.141,-25.6481 171.194,-32.3402"/>
</g>
<!-- &#45;5153684450691277699&#45;&gt;9210687334749703547 -->
<g id="edge6" class="edge"><title>&#45;5153684450691277699&#45;&gt;9210687334749703547</title>
<path fill="none" stroke="black" d="M324.403,-45C332.393,-45 341.311,-45 349.824,-45"/>
<polygon fill="black" stroke="black" points="349.919,-48.5001 359.919,-45 349.919,-41.5001 349.919,-48.5001"/>
</g>
</g>
</svg>
