<?xml version="1.0" encoding="UTF-8" standalone="no"?>
<!DOCTYPE svg PUBLIC "-//W3C//DTD SVG 1.1//EN"
 "http://www.w3.org/Graphics/SVG/1.1/DTD/svg11.dtd">
<!-- Generated by graphviz version 2.38.0 (20140413.2041)
 -->
<!-- Title: subnet_2 Pages: 1 -->
<svg width="422pt" height="197pt"
 viewBox="0.00 0.00 422.00 197.00" xmlns="http://www.w3.org/2000/svg" xmlns:xlink="http://www.w3.org/1999/xlink">
<g id="graph0" class="graph" transform="scale(1 1) rotate(0) translate(4 193)">
<title>subnet_2</title>
<!-- 9210687334749703547 -->
<g id="node1" class="node"><title>9210687334749703547</title>
<polygon fill="none" stroke="black" points="54,-90 0,-90 0,-54 54,-54 54,-90"/>
<text text-anchor="middle" x="27" y="-68.3" font-family="Times New Roman,serif" font-size="14.00">d</text>
</g>
<!-- &#45;7909627992351525139 -->
<g id="node8" class="node"><title>&#45;7909627992351525139</title>
<ellipse fill="none" stroke="black" cx="117" cy="-72" rx="27" ry="27"/>
</g>
<!-- 9210687334749703547&#45;&gt;&#45;7909627992351525139 -->
<g id="edge4" class="edge"><title>9210687334749703547&#45;&gt;&#45;7909627992351525139</title>
<path fill="none" stroke="black" d="M54.4029,-72C62.3932,-72 71.3106,-72 79.8241,-72"/>
<polygon fill="black" stroke="black" points="79.919,-75.5001 89.919,-72 79.919,-68.5001 79.919,-75.5001"/>
</g>
<!-- &#45;2985118760847666230 -->
<g id="node2" class="node"><title>&#45;2985118760847666230</title>
<polygon fill="black" stroke="black" points="234,-144 180,-144 180,-108 234,-108 234,-144"/>
</g>
<!-- &#45;7025497399030622183 -->
<g id="node7" class="node"><title>&#45;7025497399030622183</title>
<ellipse fill="none" stroke="black" cx="297" cy="-162" rx="27" ry="27"/>
</g>
<!-- &#45;2985118760847666230&#45;&gt;&#45;7025497399030622183 -->
<g id="edge1" class="edge"><title>&#45;2985118760847666230&#45;&gt;&#45;7025497399030622183</title>
<path fill="none" stroke="black" d="M234.403,-136.801C243.195,-140.398 253.11,-144.454 262.374,-148.244"/>
<polygon fill="black" stroke="black" points="261.138,-151.52 271.719,-152.067 263.789,-145.041 261.138,-151.52"/>
</g>
<!-- &#45;4787359909285478749 -->
<g id="node9" class="node"><title>&#45;4787359909285478749</title>
<ellipse fill="none" stroke="black" cx="297" cy="-90" rx="27" ry="27"/>
</g>
<!-- &#45;2985118760847666230&#45;&gt;&#45;4787359909285478749 -->
<g id="edge8" class="edge"><title>&#45;2985118760847666230&#45;&gt;&#45;4787359909285478749</title>
<path fill="none" stroke="black" d="M234.403,-115.199C243.195,-111.602 253.11,-107.546 262.374,-103.756"/>
<polygon fill="black" stroke="black" points="263.789,-106.959 271.719,-99.9332 261.138,-100.48 263.789,-106.959"/>
</g>
<!-- &#45;759928514005850334 -->
<g id="node3" class="node"><title>&#45;759928514005850334</title>
<polygon fill="none" stroke="black" points="234,-90 180,-90 180,-54 234,-54 234,-90"/>
<text text-anchor="middle" x="207" y="-68.3" font-family="Times New Roman,serif" font-size="14.00">e</text>
</g>
<!-- &#45;4353070210892642330 -->
<g id="node4" class="node"><title>&#45;4353070210892642330</title>
<polygon fill="none" stroke="black" points="414,-180 360,-180 360,-144 414,-144 414,-180"/>
<text text-anchor="middle" x="387" y="-158.3" font-family="Times New Roman,serif" font-size="14.00">f</text>
</g>
<!-- &#45;877614639634535215 -->
<g id="node5" class="node"><title>&#45;877614639634535215</title>
<polygon fill="none" stroke="black" points="234,-36 180,-36 180,-0 234,-0 234,-36"/>
<text text-anchor="middle" x="207" y="-14.3" font-family="Times New Roman,serif" font-size="14.00">h</text>
</g>
<!-- &#45;58580350313499950 -->
<g id="node6" class="node"><title>&#45;58580350313499950</title>
<polygon fill="none" stroke="black" points="414,-108 360,-108 360,-72 414,-72 414,-108"/>
<text text-anchor="middle" x="387" y="-86.3" font-family="Times New Roman,serif" font-size="14.00">g</text>
</g>
<!-- &#45;7025497399030622183&#45;&gt;&#45;4353070210892642330 -->
<g id="edge3" class="edge"><title>&#45;7025497399030622183&#45;&gt;&#45;4353070210892642330</title>
<path fill="none" stroke="black" d="M324.403,-162C332.393,-162 341.311,-162 349.824,-162"/>
<polygon fill="black" stroke="black" points="349.919,-165.5 359.919,-162 349.919,-158.5 349.919,-165.5"/>
</g>
<!-- &#45;7909627992351525139&#45;&gt;&#45;2985118760847666230 -->
<g id="edge2" class="edge"><title>&#45;7909627992351525139&#45;&gt;&#45;2985118760847666230</title>
<path fill="none" stroke="black" d="M140.662,-85.9063C149.958,-91.6104 160.93,-98.3431 171.201,-104.646"/>
<polygon fill="black" stroke="black" points="169.634,-107.791 179.988,-110.038 173.295,-101.825 169.634,-107.791"/>
</g>
<!-- &#45;7909627992351525139&#45;&gt;&#45;759928514005850334 -->
<g id="edge7" class="edge"><title>&#45;7909627992351525139&#45;&gt;&#45;759928514005850334</title>
<path fill="none" stroke="black" d="M144.403,-72C152.393,-72 161.311,-72 169.824,-72"/>
<polygon fill="black" stroke="black" points="169.919,-75.5001 179.919,-72 169.919,-68.5001 169.919,-75.5001"/>
</g>
<!-- &#45;7909627992351525139&#45;&gt;&#45;877614639634535215 -->
<g id="edge5" class="edge"><title>&#45;7909627992351525139&#45;&gt;&#45;877614639634535215</title>
<path fill="none" stroke="black" d="M140.662,-58.0937C149.958,-52.3896 160.93,-45.6569 171.201,-39.3538"/>
<polygon fill="black" stroke="black" points="173.295,-42.1754 179.988,-33.9621 169.634,-36.2092 173.295,-42.1754"/>
</g>
<!-- &#45;4787359909285478749&#45;&gt;&#45;58580350313499950 -->
<g id="edge6" class="edge"><title>&#45;4787359909285478749&#45;&gt;&#45;58580350313499950</title>
<path fill="none" stroke="black" d="M324.403,-90C332.393,-90 341.311,-90 349.824,-90"/>
<polygon fill="black" stroke="black" points="349.919,-93.5001 359.919,-90 349.919,-86.5001 349.919,-93.5001"/>
</g>
</g>
</svg>
